<mxfile host="Electron" modified="2023-05-07T12:16:40.667Z" agent="Mozilla/5.0 (Windows NT 10.0; Win64; x64) AppleWebKit/537.36 (KHTML, like Gecko) draw.io/21.2.8 Chrome/112.0.5615.165 Electron/24.2.0 Safari/537.36" etag="VOxDcuMFiDKAqqp6mJfr" version="21.2.8" type="device">
  <diagram id="R2lEEEUBdFMjLlhIrx00" name="Page-1">
    <mxGraphModel dx="1970" dy="532" grid="0" gridSize="10" guides="1" tooltips="1" connect="1" arrows="0" fold="1" page="1" pageScale="1" pageWidth="850" pageHeight="1100" math="0" shadow="0" extFonts="Permanent Marker^https://fonts.googleapis.com/css?family=Permanent+Marker">
      <root>
        <mxCell id="0" />
        <mxCell id="1" parent="0" />
        <mxCell id="C-vyLk0tnHw3VtMMgP7b-2" value="Administrator" style="shape=table;startSize=30;container=1;collapsible=1;childLayout=tableLayout;fixedRows=1;rowLines=0;fontStyle=1;align=center;resizeLast=1;rounded=0;swimlaneLine=1;labelBackgroundColor=none;fillColor=#5D7F99;strokeColor=#D0CEE2;fontColor=#1A1A1A;" parent="1" vertex="1">
          <mxGeometry x="549" y="3" width="260" height="242" as="geometry">
            <mxRectangle x="450" y="120" width="120" height="30" as="alternateBounds" />
          </mxGeometry>
        </mxCell>
        <mxCell id="C-vyLk0tnHw3VtMMgP7b-3" value="" style="shape=partialRectangle;collapsible=0;dropTarget=0;pointerEvents=0;fillColor=none;points=[[0,0.5],[1,0.5]];portConstraint=eastwest;top=0;left=0;right=0;bottom=1;labelBackgroundColor=none;strokeColor=#D0CEE2;fontColor=#1A1A1A;" parent="C-vyLk0tnHw3VtMMgP7b-2" vertex="1">
          <mxGeometry y="30" width="260" height="30" as="geometry" />
        </mxCell>
        <mxCell id="C-vyLk0tnHw3VtMMgP7b-4" value="PK" style="shape=partialRectangle;overflow=hidden;connectable=0;fillColor=none;top=0;left=0;bottom=0;right=0;fontStyle=1;labelBackgroundColor=none;strokeColor=#D0CEE2;fontColor=#1A1A1A;" parent="C-vyLk0tnHw3VtMMgP7b-3" vertex="1">
          <mxGeometry width="30" height="30" as="geometry">
            <mxRectangle width="30" height="30" as="alternateBounds" />
          </mxGeometry>
        </mxCell>
        <mxCell id="C-vyLk0tnHw3VtMMgP7b-5" value="admin_idÂ int NOT NULL " style="shape=partialRectangle;overflow=hidden;connectable=0;fillColor=none;top=0;left=0;bottom=0;right=0;align=left;spacingLeft=6;fontStyle=5;labelBackgroundColor=none;strokeColor=#D0CEE2;fontColor=#1A1A1A;" parent="C-vyLk0tnHw3VtMMgP7b-3" vertex="1">
          <mxGeometry x="30" width="230" height="30" as="geometry">
            <mxRectangle width="230" height="30" as="alternateBounds" />
          </mxGeometry>
        </mxCell>
        <mxCell id="C-vyLk0tnHw3VtMMgP7b-9" value="" style="shape=partialRectangle;collapsible=0;dropTarget=0;pointerEvents=0;fillColor=none;points=[[0,0.5],[1,0.5]];portConstraint=eastwest;top=0;left=0;right=0;bottom=0;labelBackgroundColor=none;strokeColor=#D0CEE2;fontColor=#1A1A1A;" parent="C-vyLk0tnHw3VtMMgP7b-2" vertex="1">
          <mxGeometry y="60" width="260" height="182" as="geometry" />
        </mxCell>
        <mxCell id="C-vyLk0tnHw3VtMMgP7b-10" value="&#xa;&#xa;&#xa;&#xa;FK&#xa;&#xa;FK" style="shape=partialRectangle;overflow=hidden;connectable=0;fillColor=none;top=0;left=0;bottom=0;right=0;labelBackgroundColor=none;strokeColor=#D0CEE2;fontColor=#1A1A1A;" parent="C-vyLk0tnHw3VtMMgP7b-9" vertex="1">
          <mxGeometry width="30" height="182" as="geometry">
            <mxRectangle width="30" height="182" as="alternateBounds" />
          </mxGeometry>
        </mxCell>
        <mxCell id="C-vyLk0tnHw3VtMMgP7b-11" value="email varchar(100) NOT NULL&#xa;full_name char(50) NOT NULL&#xa;password varchar(100) NOT NULL&#xa;&#xa;vendor_id int NOT NULL&#xa;&#xa;customer_id int NOT NULL" style="shape=partialRectangle;overflow=hidden;connectable=0;fillColor=none;top=0;left=0;bottom=0;right=0;align=left;spacingLeft=6;labelBackgroundColor=none;strokeColor=#D0CEE2;fontColor=#1A1A1A;" parent="C-vyLk0tnHw3VtMMgP7b-9" vertex="1">
          <mxGeometry x="30" width="230" height="182" as="geometry">
            <mxRectangle width="230" height="182" as="alternateBounds" />
          </mxGeometry>
        </mxCell>
        <mxCell id="C-vyLk0tnHw3VtMMgP7b-13" value="Vendor" style="shape=table;startSize=30;container=1;collapsible=1;childLayout=tableLayout;fixedRows=1;rowLines=0;fontStyle=1;align=center;resizeLast=1;labelBackgroundColor=none;fillColor=#5D7F99;strokeColor=#D0CEE2;fontColor=#1A1A1A;" parent="1" vertex="1">
          <mxGeometry x="58" y="338" width="270" height="215" as="geometry" />
        </mxCell>
        <mxCell id="C-vyLk0tnHw3VtMMgP7b-14" value="" style="shape=partialRectangle;collapsible=0;dropTarget=0;pointerEvents=0;fillColor=none;points=[[0,0.5],[1,0.5]];portConstraint=eastwest;top=0;left=0;right=0;bottom=1;labelBackgroundColor=none;strokeColor=#D0CEE2;fontColor=#1A1A1A;" parent="C-vyLk0tnHw3VtMMgP7b-13" vertex="1">
          <mxGeometry y="30" width="270" height="30" as="geometry" />
        </mxCell>
        <mxCell id="C-vyLk0tnHw3VtMMgP7b-15" value="PK" style="shape=partialRectangle;overflow=hidden;connectable=0;fillColor=none;top=0;left=0;bottom=0;right=0;fontStyle=1;labelBackgroundColor=none;strokeColor=#D0CEE2;fontColor=#1A1A1A;" parent="C-vyLk0tnHw3VtMMgP7b-14" vertex="1">
          <mxGeometry width="30" height="30" as="geometry">
            <mxRectangle width="30" height="30" as="alternateBounds" />
          </mxGeometry>
        </mxCell>
        <mxCell id="C-vyLk0tnHw3VtMMgP7b-16" value="vendor_id int NOT NULL " style="shape=partialRectangle;overflow=hidden;connectable=0;fillColor=none;top=0;left=0;bottom=0;right=0;align=left;spacingLeft=6;fontStyle=5;labelBackgroundColor=none;strokeColor=#D0CEE2;fontColor=#1A1A1A;" parent="C-vyLk0tnHw3VtMMgP7b-14" vertex="1">
          <mxGeometry x="30" width="240" height="30" as="geometry">
            <mxRectangle width="240" height="30" as="alternateBounds" />
          </mxGeometry>
        </mxCell>
        <mxCell id="C-vyLk0tnHw3VtMMgP7b-17" value="" style="shape=partialRectangle;collapsible=0;dropTarget=0;pointerEvents=0;fillColor=none;points=[[0,0.5],[1,0.5]];portConstraint=eastwest;top=0;left=0;right=0;bottom=0;labelBackgroundColor=none;strokeColor=#D0CEE2;fontColor=#1A1A1A;" parent="C-vyLk0tnHw3VtMMgP7b-13" vertex="1">
          <mxGeometry y="60" width="270" height="155" as="geometry" />
        </mxCell>
        <mxCell id="C-vyLk0tnHw3VtMMgP7b-18" value="&#xa;&#xa;&#xa;&#xa;&#xa;FK&#xa;&#xa;FK" style="shape=partialRectangle;overflow=hidden;connectable=0;fillColor=none;top=0;left=0;bottom=0;right=0;labelBackgroundColor=none;strokeColor=#D0CEE2;fontColor=#1A1A1A;" parent="C-vyLk0tnHw3VtMMgP7b-17" vertex="1">
          <mxGeometry width="30" height="155" as="geometry">
            <mxRectangle width="30" height="155" as="alternateBounds" />
          </mxGeometry>
        </mxCell>
        <mxCell id="C-vyLk0tnHw3VtMMgP7b-19" value="vendor_name char(30) int NOT NULL&#xa;vendor_password char(50) NOT NULL&#xa;vendor_phoneNumber char(50) NOT NULL&#xa;vendor_email char(50) NOT NULL&#xa;&#xa;&#xa;customer_id int NOT NULL&#xa;&#xa;admin_id int NOT NULL&#xa;" style="shape=partialRectangle;overflow=hidden;connectable=0;fillColor=none;top=0;left=0;bottom=0;right=0;align=left;spacingLeft=6;labelBackgroundColor=none;strokeColor=#D0CEE2;fontColor=#1A1A1A;" parent="C-vyLk0tnHw3VtMMgP7b-17" vertex="1">
          <mxGeometry x="30" width="240" height="155" as="geometry">
            <mxRectangle width="240" height="155" as="alternateBounds" />
          </mxGeometry>
        </mxCell>
        <mxCell id="C-vyLk0tnHw3VtMMgP7b-23" value="Customer" style="shape=table;startSize=30;container=1;collapsible=1;childLayout=tableLayout;fixedRows=1;rowLines=0;fontStyle=1;align=center;resizeLast=1;labelBackgroundColor=none;fillColor=#5D7F99;strokeColor=#D0CEE2;fontColor=#1A1A1A;" parent="1" vertex="1">
          <mxGeometry x="3" y="44" width="292.75" height="259.25" as="geometry" />
        </mxCell>
        <mxCell id="C-vyLk0tnHw3VtMMgP7b-24" value="" style="shape=partialRectangle;collapsible=0;dropTarget=0;pointerEvents=0;fillColor=none;points=[[0,0.5],[1,0.5]];portConstraint=eastwest;top=0;left=0;right=0;bottom=1;labelBackgroundColor=none;strokeColor=#D0CEE2;fontColor=#1A1A1A;" parent="C-vyLk0tnHw3VtMMgP7b-23" vertex="1">
          <mxGeometry y="30" width="292.75" height="30" as="geometry" />
        </mxCell>
        <mxCell id="C-vyLk0tnHw3VtMMgP7b-25" value="PK" style="shape=partialRectangle;overflow=hidden;connectable=0;fillColor=none;top=0;left=0;bottom=0;right=0;fontStyle=1;labelBackgroundColor=none;strokeColor=#D0CEE2;fontColor=#1A1A1A;" parent="C-vyLk0tnHw3VtMMgP7b-24" vertex="1">
          <mxGeometry width="31.5" height="30" as="geometry">
            <mxRectangle width="31.5" height="30" as="alternateBounds" />
          </mxGeometry>
        </mxCell>
        <mxCell id="C-vyLk0tnHw3VtMMgP7b-26" value="customer_id int NOT NULL " style="shape=partialRectangle;overflow=hidden;connectable=0;fillColor=none;top=0;left=0;bottom=0;right=0;align=left;spacingLeft=6;fontStyle=5;labelBackgroundColor=none;strokeColor=#D0CEE2;fontColor=#1A1A1A;" parent="C-vyLk0tnHw3VtMMgP7b-24" vertex="1">
          <mxGeometry x="31.5" width="261.25" height="30" as="geometry">
            <mxRectangle width="261.25" height="30" as="alternateBounds" />
          </mxGeometry>
        </mxCell>
        <mxCell id="C-vyLk0tnHw3VtMMgP7b-27" value="" style="shape=partialRectangle;collapsible=0;dropTarget=0;pointerEvents=0;fillColor=none;points=[[0,0.5],[1,0.5]];portConstraint=eastwest;top=0;left=0;right=0;bottom=0;labelBackgroundColor=none;strokeColor=#D0CEE2;fontColor=#1A1A1A;" parent="C-vyLk0tnHw3VtMMgP7b-23" vertex="1">
          <mxGeometry y="60" width="292.75" height="199" as="geometry" />
        </mxCell>
        <mxCell id="C-vyLk0tnHw3VtMMgP7b-28" value="&#xa;&#xa;&#xa;&#xa;&#xa;&#xa;&#xa;FK&#xa;&#xa;FK" style="shape=partialRectangle;overflow=hidden;connectable=0;fillColor=none;top=0;left=0;bottom=0;right=0;labelBackgroundColor=none;strokeColor=#D0CEE2;fontColor=#1A1A1A;" parent="C-vyLk0tnHw3VtMMgP7b-27" vertex="1">
          <mxGeometry width="31.5" height="199" as="geometry">
            <mxRectangle width="31.5" height="199" as="alternateBounds" />
          </mxGeometry>
        </mxCell>
        <mxCell id="C-vyLk0tnHw3VtMMgP7b-29" value="customer_name char(50) NOT NULL&#xa;customer_username char(50) NOT NULL&#xa;customer_email char(50) NOT NULL&#xa;customer_address char(150) NOT NULL&#xa;customer_password char(50) NOT NULL&#xa;customer_phoneNumber char(50) NOT NULL&#xa;&#xa;vendor_id int NOT NULL&#xa;&#xa;admin_id int NOT NULL" style="shape=partialRectangle;overflow=hidden;connectable=0;fillColor=none;top=0;left=0;bottom=0;right=0;align=left;spacingLeft=6;labelBackgroundColor=none;strokeColor=#D0CEE2;fontColor=#1A1A1A;" parent="C-vyLk0tnHw3VtMMgP7b-27" vertex="1">
          <mxGeometry x="31.5" width="261.25" height="199" as="geometry">
            <mxRectangle width="261.25" height="199" as="alternateBounds" />
          </mxGeometry>
        </mxCell>
        <mxCell id="2vAVYUKRuK6snD1z7z8g-1" value="" style="edgeStyle=entityRelationEdgeStyle;fontSize=12;html=1;endArrow=ERzeroToMany;endFill=1;startArrow=ERzeroToMany;rounded=0;exitX=1.004;exitY=0.146;exitDx=0;exitDy=0;labelBackgroundColor=none;strokeColor=#736CA8;fontColor=default;exitPerimeter=0;" parent="1" source="C-vyLk0tnHw3VtMMgP7b-27" edge="1" target="C-vyLk0tnHw3VtMMgP7b-9">
          <mxGeometry width="100" height="100" relative="1" as="geometry">
            <mxPoint x="355" y="266" as="sourcePoint" />
            <mxPoint x="450" y="166" as="targetPoint" />
          </mxGeometry>
        </mxCell>
        <mxCell id="b9A2-R6nd02XEGGfmgkH-1" value="Feedback" style="shape=table;startSize=30;container=1;collapsible=1;childLayout=tableLayout;fixedRows=1;rowLines=0;fontStyle=1;align=center;resizeLast=1;html=1;labelBackgroundColor=none;fillColor=#5D7F99;strokeColor=#D0CEE2;fontColor=#1A1A1A;" vertex="1" parent="1">
          <mxGeometry x="68" y="594" width="224.75" height="220.5" as="geometry" />
        </mxCell>
        <mxCell id="b9A2-R6nd02XEGGfmgkH-2" value="" style="shape=tableRow;horizontal=0;startSize=0;swimlaneHead=0;swimlaneBody=0;fillColor=none;collapsible=0;dropTarget=0;points=[[0,0.5],[1,0.5]];portConstraint=eastwest;top=0;left=0;right=0;bottom=1;labelBackgroundColor=none;strokeColor=#D0CEE2;fontColor=#1A1A1A;" vertex="1" parent="b9A2-R6nd02XEGGfmgkH-1">
          <mxGeometry y="30" width="224.75" height="30" as="geometry" />
        </mxCell>
        <mxCell id="b9A2-R6nd02XEGGfmgkH-3" value="PK" style="shape=partialRectangle;connectable=0;fillColor=none;top=0;left=0;bottom=0;right=0;fontStyle=1;overflow=hidden;whiteSpace=wrap;html=1;labelBackgroundColor=none;strokeColor=#D0CEE2;fontColor=#1A1A1A;" vertex="1" parent="b9A2-R6nd02XEGGfmgkH-2">
          <mxGeometry width="30" height="30" as="geometry">
            <mxRectangle width="30" height="30" as="alternateBounds" />
          </mxGeometry>
        </mxCell>
        <mxCell id="b9A2-R6nd02XEGGfmgkH-4" value="feedback_id int NOT NULL" style="shape=partialRectangle;connectable=0;fillColor=none;top=0;left=0;bottom=0;right=0;align=left;spacingLeft=6;fontStyle=5;overflow=hidden;whiteSpace=wrap;html=1;labelBackgroundColor=none;strokeColor=#D0CEE2;fontColor=#1A1A1A;" vertex="1" parent="b9A2-R6nd02XEGGfmgkH-2">
          <mxGeometry x="30" width="194.75" height="30" as="geometry">
            <mxRectangle width="194.75" height="30" as="alternateBounds" />
          </mxGeometry>
        </mxCell>
        <mxCell id="b9A2-R6nd02XEGGfmgkH-5" value="" style="shape=tableRow;horizontal=0;startSize=0;swimlaneHead=0;swimlaneBody=0;fillColor=none;collapsible=0;dropTarget=0;points=[[0,0.5],[1,0.5]];portConstraint=eastwest;top=0;left=0;right=0;bottom=0;labelBackgroundColor=none;strokeColor=#D0CEE2;fontColor=#1A1A1A;" vertex="1" parent="b9A2-R6nd02XEGGfmgkH-1">
          <mxGeometry y="60" width="224.75" height="85" as="geometry" />
        </mxCell>
        <mxCell id="b9A2-R6nd02XEGGfmgkH-6" value="" style="shape=partialRectangle;connectable=0;fillColor=none;top=0;left=0;bottom=0;right=0;editable=1;overflow=hidden;whiteSpace=wrap;html=1;labelBackgroundColor=none;strokeColor=#D0CEE2;fontColor=#1A1A1A;" vertex="1" parent="b9A2-R6nd02XEGGfmgkH-5">
          <mxGeometry width="30" height="85" as="geometry">
            <mxRectangle width="30" height="85" as="alternateBounds" />
          </mxGeometry>
        </mxCell>
        <mxCell id="b9A2-R6nd02XEGGfmgkH-7" value="description VARCHAR(200)&lt;br&gt;" style="shape=partialRectangle;connectable=0;fillColor=none;top=0;left=0;bottom=0;right=0;align=left;spacingLeft=6;overflow=hidden;whiteSpace=wrap;html=1;labelBackgroundColor=none;strokeColor=#D0CEE2;fontColor=#1A1A1A;" vertex="1" parent="b9A2-R6nd02XEGGfmgkH-5">
          <mxGeometry x="30" width="194.75" height="85" as="geometry">
            <mxRectangle width="194.75" height="85" as="alternateBounds" />
          </mxGeometry>
        </mxCell>
        <mxCell id="b9A2-R6nd02XEGGfmgkH-11" value="" style="shape=tableRow;horizontal=0;startSize=0;swimlaneHead=0;swimlaneBody=0;fillColor=none;collapsible=0;dropTarget=0;points=[[0,0.5],[1,0.5]];portConstraint=eastwest;top=0;left=0;right=0;bottom=0;labelBackgroundColor=none;strokeColor=#D0CEE2;fontColor=#1A1A1A;" vertex="1" parent="b9A2-R6nd02XEGGfmgkH-1">
          <mxGeometry y="145" width="224.75" height="75" as="geometry" />
        </mxCell>
        <mxCell id="b9A2-R6nd02XEGGfmgkH-12" value="FK&lt;br&gt;&lt;br&gt;FK&lt;br&gt;&lt;br&gt;FK" style="shape=partialRectangle;connectable=0;fillColor=none;top=0;left=0;bottom=0;right=0;editable=1;overflow=hidden;whiteSpace=wrap;html=1;labelBackgroundColor=none;strokeColor=#D0CEE2;fontColor=#1A1A1A;" vertex="1" parent="b9A2-R6nd02XEGGfmgkH-11">
          <mxGeometry width="30" height="75" as="geometry">
            <mxRectangle width="30" height="75" as="alternateBounds" />
          </mxGeometry>
        </mxCell>
        <mxCell id="b9A2-R6nd02XEGGfmgkH-13" value="customer_id int NOT NULL&lt;br&gt;&lt;br&gt;order_id int NOT NULL&lt;br&gt;&lt;br&gt;admin_id int NOT NULL" style="shape=partialRectangle;connectable=0;fillColor=none;top=0;left=0;bottom=0;right=0;align=left;spacingLeft=6;overflow=hidden;whiteSpace=wrap;html=1;labelBackgroundColor=none;strokeColor=#D0CEE2;fontColor=#1A1A1A;" vertex="1" parent="b9A2-R6nd02XEGGfmgkH-11">
          <mxGeometry x="30" width="194.75" height="75" as="geometry">
            <mxRectangle width="194.75" height="75" as="alternateBounds" />
          </mxGeometry>
        </mxCell>
        <mxCell id="b9A2-R6nd02XEGGfmgkH-16" value="Order" style="shape=table;startSize=30;container=1;collapsible=1;childLayout=tableLayout;fixedRows=1;rowLines=0;fontStyle=1;align=center;resizeLast=1;html=1;labelBackgroundColor=none;fillColor=#5D7F99;strokeColor=#D0CEE2;fontColor=#1A1A1A;" vertex="1" parent="1">
          <mxGeometry x="626" y="570" width="207.75" height="225" as="geometry" />
        </mxCell>
        <mxCell id="b9A2-R6nd02XEGGfmgkH-17" value="" style="shape=tableRow;horizontal=0;startSize=0;swimlaneHead=0;swimlaneBody=0;fillColor=none;collapsible=0;dropTarget=0;points=[[0,0.5],[1,0.5]];portConstraint=eastwest;top=0;left=0;right=0;bottom=1;labelBackgroundColor=none;strokeColor=#D0CEE2;fontColor=#1A1A1A;" vertex="1" parent="b9A2-R6nd02XEGGfmgkH-16">
          <mxGeometry y="30" width="207.75" height="30" as="geometry" />
        </mxCell>
        <mxCell id="b9A2-R6nd02XEGGfmgkH-18" value="PK" style="shape=partialRectangle;connectable=0;fillColor=none;top=0;left=0;bottom=0;right=0;fontStyle=1;overflow=hidden;whiteSpace=wrap;html=1;labelBackgroundColor=none;strokeColor=#D0CEE2;fontColor=#1A1A1A;" vertex="1" parent="b9A2-R6nd02XEGGfmgkH-17">
          <mxGeometry width="30" height="30" as="geometry">
            <mxRectangle width="30" height="30" as="alternateBounds" />
          </mxGeometry>
        </mxCell>
        <mxCell id="b9A2-R6nd02XEGGfmgkH-19" value="order_id" style="shape=partialRectangle;connectable=0;fillColor=none;top=0;left=0;bottom=0;right=0;align=left;spacingLeft=6;fontStyle=5;overflow=hidden;whiteSpace=wrap;html=1;labelBackgroundColor=none;strokeColor=#D0CEE2;fontColor=#1A1A1A;" vertex="1" parent="b9A2-R6nd02XEGGfmgkH-17">
          <mxGeometry x="30" width="177.75" height="30" as="geometry">
            <mxRectangle width="177.75" height="30" as="alternateBounds" />
          </mxGeometry>
        </mxCell>
        <mxCell id="b9A2-R6nd02XEGGfmgkH-20" value="" style="shape=tableRow;horizontal=0;startSize=0;swimlaneHead=0;swimlaneBody=0;fillColor=none;collapsible=0;dropTarget=0;points=[[0,0.5],[1,0.5]];portConstraint=eastwest;top=0;left=0;right=0;bottom=0;labelBackgroundColor=none;strokeColor=#D0CEE2;fontColor=#1A1A1A;" vertex="1" parent="b9A2-R6nd02XEGGfmgkH-16">
          <mxGeometry y="60" width="207.75" height="59" as="geometry" />
        </mxCell>
        <mxCell id="b9A2-R6nd02XEGGfmgkH-21" value="" style="shape=partialRectangle;connectable=0;fillColor=none;top=0;left=0;bottom=0;right=0;editable=1;overflow=hidden;whiteSpace=wrap;html=1;labelBackgroundColor=none;strokeColor=#D0CEE2;fontColor=#1A1A1A;" vertex="1" parent="b9A2-R6nd02XEGGfmgkH-20">
          <mxGeometry width="30" height="59" as="geometry">
            <mxRectangle width="30" height="59" as="alternateBounds" />
          </mxGeometry>
        </mxCell>
        <mxCell id="b9A2-R6nd02XEGGfmgkH-22" value="order_date DATETIME&lt;br&gt;shipping_address varchar(50)" style="shape=partialRectangle;connectable=0;fillColor=none;top=0;left=0;bottom=0;right=0;align=left;spacingLeft=6;overflow=hidden;whiteSpace=wrap;html=1;labelBackgroundColor=none;strokeColor=#D0CEE2;fontColor=#1A1A1A;" vertex="1" parent="b9A2-R6nd02XEGGfmgkH-20">
          <mxGeometry x="30" width="177.75" height="59" as="geometry">
            <mxRectangle width="177.75" height="59" as="alternateBounds" />
          </mxGeometry>
        </mxCell>
        <mxCell id="b9A2-R6nd02XEGGfmgkH-26" value="" style="shape=tableRow;horizontal=0;startSize=0;swimlaneHead=0;swimlaneBody=0;fillColor=none;collapsible=0;dropTarget=0;points=[[0,0.5],[1,0.5]];portConstraint=eastwest;top=0;left=0;right=0;bottom=0;labelBackgroundColor=none;strokeColor=#D0CEE2;fontColor=#1A1A1A;" vertex="1" parent="b9A2-R6nd02XEGGfmgkH-16">
          <mxGeometry y="119" width="207.75" height="106" as="geometry" />
        </mxCell>
        <mxCell id="b9A2-R6nd02XEGGfmgkH-27" value="FK&lt;br&gt;&lt;br&gt;FK" style="shape=partialRectangle;connectable=0;fillColor=none;top=0;left=0;bottom=0;right=0;editable=1;overflow=hidden;whiteSpace=wrap;html=1;labelBackgroundColor=none;strokeColor=#D0CEE2;fontColor=#1A1A1A;" vertex="1" parent="b9A2-R6nd02XEGGfmgkH-26">
          <mxGeometry width="30" height="106" as="geometry">
            <mxRectangle width="30" height="106" as="alternateBounds" />
          </mxGeometry>
        </mxCell>
        <mxCell id="b9A2-R6nd02XEGGfmgkH-28" value="customer_id int NOT NULL&lt;br&gt;&lt;br&gt;payment_id int NOT NULL" style="shape=partialRectangle;connectable=0;fillColor=none;top=0;left=0;bottom=0;right=0;align=left;spacingLeft=6;overflow=hidden;whiteSpace=wrap;html=1;labelBackgroundColor=none;strokeColor=#D0CEE2;fontColor=#1A1A1A;" vertex="1" parent="b9A2-R6nd02XEGGfmgkH-26">
          <mxGeometry x="30" width="177.75" height="106" as="geometry">
            <mxRectangle width="177.75" height="106" as="alternateBounds" />
          </mxGeometry>
        </mxCell>
        <mxCell id="b9A2-R6nd02XEGGfmgkH-29" value="Product" style="shape=table;startSize=30;container=1;collapsible=1;childLayout=tableLayout;fixedRows=1;rowLines=0;fontStyle=1;align=center;resizeLast=1;html=1;labelBackgroundColor=none;fillColor=#5D7F99;strokeColor=#D0CEE2;fontColor=#1A1A1A;" vertex="1" parent="1">
          <mxGeometry x="5.75" y="904" width="290" height="194" as="geometry" />
        </mxCell>
        <mxCell id="b9A2-R6nd02XEGGfmgkH-30" value="" style="shape=tableRow;horizontal=0;startSize=0;swimlaneHead=0;swimlaneBody=0;fillColor=none;collapsible=0;dropTarget=0;points=[[0,0.5],[1,0.5]];portConstraint=eastwest;top=0;left=0;right=0;bottom=1;labelBackgroundColor=none;strokeColor=#D0CEE2;fontColor=#1A1A1A;" vertex="1" parent="b9A2-R6nd02XEGGfmgkH-29">
          <mxGeometry y="30" width="290" height="41" as="geometry" />
        </mxCell>
        <mxCell id="b9A2-R6nd02XEGGfmgkH-31" value="PK, FK" style="shape=partialRectangle;connectable=0;fillColor=none;top=0;left=0;bottom=0;right=0;fontStyle=1;overflow=hidden;whiteSpace=wrap;html=1;labelBackgroundColor=none;strokeColor=#D0CEE2;fontColor=#1A1A1A;" vertex="1" parent="b9A2-R6nd02XEGGfmgkH-30">
          <mxGeometry width="39" height="41" as="geometry">
            <mxRectangle width="39" height="41" as="alternateBounds" />
          </mxGeometry>
        </mxCell>
        <mxCell id="b9A2-R6nd02XEGGfmgkH-32" value="product_id" style="shape=partialRectangle;connectable=0;fillColor=none;top=0;left=0;bottom=0;right=0;align=left;spacingLeft=6;fontStyle=5;overflow=hidden;whiteSpace=wrap;html=1;labelBackgroundColor=none;strokeColor=#D0CEE2;fontColor=#1A1A1A;" vertex="1" parent="b9A2-R6nd02XEGGfmgkH-30">
          <mxGeometry x="39" width="251" height="41" as="geometry">
            <mxRectangle width="251" height="41" as="alternateBounds" />
          </mxGeometry>
        </mxCell>
        <mxCell id="b9A2-R6nd02XEGGfmgkH-33" value="" style="shape=tableRow;horizontal=0;startSize=0;swimlaneHead=0;swimlaneBody=0;fillColor=none;collapsible=0;dropTarget=0;points=[[0,0.5],[1,0.5]];portConstraint=eastwest;top=0;left=0;right=0;bottom=0;labelBackgroundColor=none;strokeColor=#D0CEE2;fontColor=#1A1A1A;" vertex="1" parent="b9A2-R6nd02XEGGfmgkH-29">
          <mxGeometry y="71" width="290" height="103" as="geometry" />
        </mxCell>
        <mxCell id="b9A2-R6nd02XEGGfmgkH-34" value="" style="shape=partialRectangle;connectable=0;fillColor=none;top=0;left=0;bottom=0;right=0;editable=1;overflow=hidden;whiteSpace=wrap;html=1;labelBackgroundColor=none;strokeColor=#D0CEE2;fontColor=#1A1A1A;" vertex="1" parent="b9A2-R6nd02XEGGfmgkH-33">
          <mxGeometry width="39" height="103" as="geometry">
            <mxRectangle width="39" height="103" as="alternateBounds" />
          </mxGeometry>
        </mxCell>
        <mxCell id="b9A2-R6nd02XEGGfmgkH-35" value="product_name varchar(50) NOT NULL&lt;br&gt;product_description varchar(100) NOT NULL&lt;br&gt;price int NOT NULL" style="shape=partialRectangle;connectable=0;fillColor=none;top=0;left=0;bottom=0;right=0;align=left;spacingLeft=6;overflow=hidden;whiteSpace=wrap;html=1;labelBackgroundColor=none;strokeColor=#D0CEE2;fontColor=#1A1A1A;" vertex="1" parent="b9A2-R6nd02XEGGfmgkH-33">
          <mxGeometry x="39" width="251" height="103" as="geometry">
            <mxRectangle width="251" height="103" as="alternateBounds" />
          </mxGeometry>
        </mxCell>
        <mxCell id="b9A2-R6nd02XEGGfmgkH-39" value="" style="shape=tableRow;horizontal=0;startSize=0;swimlaneHead=0;swimlaneBody=0;fillColor=none;collapsible=0;dropTarget=0;points=[[0,0.5],[1,0.5]];portConstraint=eastwest;top=0;left=0;right=0;bottom=0;labelBackgroundColor=none;strokeColor=#D0CEE2;fontColor=#1A1A1A;" vertex="1" parent="b9A2-R6nd02XEGGfmgkH-29">
          <mxGeometry y="174" width="290" height="20" as="geometry" />
        </mxCell>
        <mxCell id="b9A2-R6nd02XEGGfmgkH-40" value="" style="shape=partialRectangle;connectable=0;fillColor=none;top=0;left=0;bottom=0;right=0;editable=1;overflow=hidden;whiteSpace=wrap;html=1;labelBackgroundColor=none;strokeColor=#D0CEE2;fontColor=#1A1A1A;" vertex="1" parent="b9A2-R6nd02XEGGfmgkH-39">
          <mxGeometry width="39" height="20" as="geometry">
            <mxRectangle width="39" height="20" as="alternateBounds" />
          </mxGeometry>
        </mxCell>
        <mxCell id="b9A2-R6nd02XEGGfmgkH-41" value="" style="shape=partialRectangle;connectable=0;fillColor=none;top=0;left=0;bottom=0;right=0;align=left;spacingLeft=6;overflow=hidden;whiteSpace=wrap;html=1;labelBackgroundColor=none;strokeColor=#D0CEE2;fontColor=#1A1A1A;" vertex="1" parent="b9A2-R6nd02XEGGfmgkH-39">
          <mxGeometry x="39" width="251" height="20" as="geometry">
            <mxRectangle width="251" height="20" as="alternateBounds" />
          </mxGeometry>
        </mxCell>
        <mxCell id="b9A2-R6nd02XEGGfmgkH-42" value="Order_Product" style="shape=table;startSize=30;container=1;collapsible=1;childLayout=tableLayout;fixedRows=1;rowLines=0;fontStyle=1;align=center;resizeLast=1;html=1;whiteSpace=wrap;labelBackgroundColor=none;fillColor=#5D7F99;strokeColor=#D0CEE2;fontColor=#1A1A1A;" vertex="1" parent="1">
          <mxGeometry x="358" y="747" width="180" height="110" as="geometry" />
        </mxCell>
        <mxCell id="b9A2-R6nd02XEGGfmgkH-43" value="" style="shape=tableRow;horizontal=0;startSize=0;swimlaneHead=0;swimlaneBody=0;fillColor=none;collapsible=0;dropTarget=0;points=[[0,0.5],[1,0.5]];portConstraint=eastwest;top=0;left=0;right=0;bottom=0;html=1;labelBackgroundColor=none;strokeColor=#D0CEE2;fontColor=#1A1A1A;" vertex="1" parent="b9A2-R6nd02XEGGfmgkH-42">
          <mxGeometry y="30" width="180" height="20" as="geometry" />
        </mxCell>
        <mxCell id="b9A2-R6nd02XEGGfmgkH-44" value="PK,FK" style="shape=partialRectangle;connectable=0;fillColor=none;top=0;left=0;bottom=0;right=0;fontStyle=1;overflow=hidden;html=1;whiteSpace=wrap;labelBackgroundColor=none;strokeColor=#D0CEE2;fontColor=#1A1A1A;" vertex="1" parent="b9A2-R6nd02XEGGfmgkH-43">
          <mxGeometry width="60" height="20" as="geometry">
            <mxRectangle width="60" height="20" as="alternateBounds" />
          </mxGeometry>
        </mxCell>
        <mxCell id="b9A2-R6nd02XEGGfmgkH-45" value="order_id" style="shape=partialRectangle;connectable=0;fillColor=none;top=0;left=0;bottom=0;right=0;align=left;spacingLeft=6;fontStyle=5;overflow=hidden;html=1;whiteSpace=wrap;labelBackgroundColor=none;strokeColor=#D0CEE2;fontColor=#1A1A1A;" vertex="1" parent="b9A2-R6nd02XEGGfmgkH-43">
          <mxGeometry x="60" width="120" height="20" as="geometry">
            <mxRectangle width="120" height="20" as="alternateBounds" />
          </mxGeometry>
        </mxCell>
        <mxCell id="b9A2-R6nd02XEGGfmgkH-46" value="" style="shape=tableRow;horizontal=0;startSize=0;swimlaneHead=0;swimlaneBody=0;fillColor=none;collapsible=0;dropTarget=0;points=[[0,0.5],[1,0.5]];portConstraint=eastwest;top=0;left=0;right=0;bottom=1;html=1;labelBackgroundColor=none;strokeColor=#D0CEE2;fontColor=#1A1A1A;" vertex="1" parent="b9A2-R6nd02XEGGfmgkH-42">
          <mxGeometry y="50" width="180" height="30" as="geometry" />
        </mxCell>
        <mxCell id="b9A2-R6nd02XEGGfmgkH-47" value="PK,FK" style="shape=partialRectangle;connectable=0;fillColor=none;top=0;left=0;bottom=0;right=0;fontStyle=1;overflow=hidden;html=1;whiteSpace=wrap;labelBackgroundColor=none;strokeColor=#D0CEE2;fontColor=#1A1A1A;" vertex="1" parent="b9A2-R6nd02XEGGfmgkH-46">
          <mxGeometry width="60" height="30" as="geometry">
            <mxRectangle width="60" height="30" as="alternateBounds" />
          </mxGeometry>
        </mxCell>
        <mxCell id="b9A2-R6nd02XEGGfmgkH-48" value="product_id" style="shape=partialRectangle;connectable=0;fillColor=none;top=0;left=0;bottom=0;right=0;align=left;spacingLeft=6;fontStyle=5;overflow=hidden;html=1;whiteSpace=wrap;labelBackgroundColor=none;strokeColor=#D0CEE2;fontColor=#1A1A1A;" vertex="1" parent="b9A2-R6nd02XEGGfmgkH-46">
          <mxGeometry x="60" width="120" height="30" as="geometry">
            <mxRectangle width="120" height="30" as="alternateBounds" />
          </mxGeometry>
        </mxCell>
        <mxCell id="b9A2-R6nd02XEGGfmgkH-49" value="" style="shape=tableRow;horizontal=0;startSize=0;swimlaneHead=0;swimlaneBody=0;fillColor=none;collapsible=0;dropTarget=0;points=[[0,0.5],[1,0.5]];portConstraint=eastwest;top=0;left=0;right=0;bottom=0;html=1;labelBackgroundColor=none;strokeColor=#D0CEE2;fontColor=#1A1A1A;" vertex="1" parent="b9A2-R6nd02XEGGfmgkH-42">
          <mxGeometry y="80" width="180" height="30" as="geometry" />
        </mxCell>
        <mxCell id="b9A2-R6nd02XEGGfmgkH-50" value="" style="shape=partialRectangle;connectable=0;fillColor=none;top=0;left=0;bottom=0;right=0;editable=1;overflow=hidden;html=1;whiteSpace=wrap;labelBackgroundColor=none;strokeColor=#D0CEE2;fontColor=#1A1A1A;" vertex="1" parent="b9A2-R6nd02XEGGfmgkH-49">
          <mxGeometry width="60" height="30" as="geometry">
            <mxRectangle width="60" height="30" as="alternateBounds" />
          </mxGeometry>
        </mxCell>
        <mxCell id="b9A2-R6nd02XEGGfmgkH-51" value="quantity int" style="shape=partialRectangle;connectable=0;fillColor=none;top=0;left=0;bottom=0;right=0;align=left;spacingLeft=6;overflow=hidden;html=1;whiteSpace=wrap;labelBackgroundColor=none;strokeColor=#D0CEE2;fontColor=#1A1A1A;" vertex="1" parent="b9A2-R6nd02XEGGfmgkH-49">
          <mxGeometry x="60" width="120" height="30" as="geometry">
            <mxRectangle width="120" height="30" as="alternateBounds" />
          </mxGeometry>
        </mxCell>
        <mxCell id="b9A2-R6nd02XEGGfmgkH-59" value="" style="edgeStyle=entityRelationEdgeStyle;fontSize=12;html=1;endArrow=ERmandOne;startArrow=ERmandOne;rounded=0;entryX=0;entryY=0.847;entryDx=0;entryDy=0;entryPerimeter=0;labelBackgroundColor=none;strokeColor=#736CA8;fontColor=default;exitX=0.997;exitY=0.671;exitDx=0;exitDy=0;exitPerimeter=0;" edge="1" parent="1" source="b9A2-R6nd02XEGGfmgkH-5" target="b9A2-R6nd02XEGGfmgkH-20">
          <mxGeometry width="100" height="100" relative="1" as="geometry">
            <mxPoint x="313" y="934" as="sourcePoint" />
            <mxPoint x="413" y="834" as="targetPoint" />
          </mxGeometry>
        </mxCell>
        <mxCell id="b9A2-R6nd02XEGGfmgkH-61" value="" style="edgeStyle=entityRelationEdgeStyle;fontSize=12;html=1;endArrow=ERzeroToMany;startArrow=ERmandOne;rounded=0;entryX=-0.014;entryY=0.203;entryDx=0;entryDy=0;entryPerimeter=0;labelBackgroundColor=none;strokeColor=#736CA8;fontColor=default;exitX=1.001;exitY=0.725;exitDx=0;exitDy=0;exitPerimeter=0;" edge="1" parent="1" source="C-vyLk0tnHw3VtMMgP7b-27" target="b9A2-R6nd02XEGGfmgkH-20">
          <mxGeometry width="100" height="100" relative="1" as="geometry">
            <mxPoint x="319" y="275" as="sourcePoint" />
            <mxPoint x="511" y="595" as="targetPoint" />
          </mxGeometry>
        </mxCell>
        <mxCell id="b9A2-R6nd02XEGGfmgkH-63" value="Store" style="shape=table;startSize=30;container=1;collapsible=1;childLayout=tableLayout;fixedRows=1;rowLines=0;fontStyle=1;align=center;resizeLast=1;html=1;labelBackgroundColor=none;fillColor=#5D7F99;strokeColor=#D0CEE2;fontColor=#1A1A1A;" vertex="1" parent="1">
          <mxGeometry x="594" y="288" width="264.75" height="240" as="geometry" />
        </mxCell>
        <mxCell id="b9A2-R6nd02XEGGfmgkH-64" value="" style="shape=tableRow;horizontal=0;startSize=0;swimlaneHead=0;swimlaneBody=0;fillColor=none;collapsible=0;dropTarget=0;points=[[0,0.5],[1,0.5]];portConstraint=eastwest;top=0;left=0;right=0;bottom=1;labelBackgroundColor=none;strokeColor=#D0CEE2;fontColor=#1A1A1A;" vertex="1" parent="b9A2-R6nd02XEGGfmgkH-63">
          <mxGeometry y="30" width="264.75" height="30" as="geometry" />
        </mxCell>
        <mxCell id="b9A2-R6nd02XEGGfmgkH-65" value="PK" style="shape=partialRectangle;connectable=0;fillColor=none;top=0;left=0;bottom=0;right=0;fontStyle=1;overflow=hidden;whiteSpace=wrap;html=1;labelBackgroundColor=none;strokeColor=#D0CEE2;fontColor=#1A1A1A;" vertex="1" parent="b9A2-R6nd02XEGGfmgkH-64">
          <mxGeometry width="30" height="30" as="geometry">
            <mxRectangle width="30" height="30" as="alternateBounds" />
          </mxGeometry>
        </mxCell>
        <mxCell id="b9A2-R6nd02XEGGfmgkH-66" value="store_id" style="shape=partialRectangle;connectable=0;fillColor=none;top=0;left=0;bottom=0;right=0;align=left;spacingLeft=6;fontStyle=5;overflow=hidden;whiteSpace=wrap;html=1;labelBackgroundColor=none;strokeColor=#D0CEE2;fontColor=#1A1A1A;" vertex="1" parent="b9A2-R6nd02XEGGfmgkH-64">
          <mxGeometry x="30" width="234.75" height="30" as="geometry">
            <mxRectangle width="234.75" height="30" as="alternateBounds" />
          </mxGeometry>
        </mxCell>
        <mxCell id="b9A2-R6nd02XEGGfmgkH-67" value="" style="shape=tableRow;horizontal=0;startSize=0;swimlaneHead=0;swimlaneBody=0;fillColor=none;collapsible=0;dropTarget=0;points=[[0,0.5],[1,0.5]];portConstraint=eastwest;top=0;left=0;right=0;bottom=0;labelBackgroundColor=none;strokeColor=#D0CEE2;fontColor=#1A1A1A;" vertex="1" parent="b9A2-R6nd02XEGGfmgkH-63">
          <mxGeometry y="60" width="264.75" height="86" as="geometry" />
        </mxCell>
        <mxCell id="b9A2-R6nd02XEGGfmgkH-68" value="" style="shape=partialRectangle;connectable=0;fillColor=none;top=0;left=0;bottom=0;right=0;editable=1;overflow=hidden;whiteSpace=wrap;html=1;labelBackgroundColor=none;strokeColor=#D0CEE2;fontColor=#1A1A1A;" vertex="1" parent="b9A2-R6nd02XEGGfmgkH-67">
          <mxGeometry width="30" height="86" as="geometry">
            <mxRectangle width="30" height="86" as="alternateBounds" />
          </mxGeometry>
        </mxCell>
        <mxCell id="b9A2-R6nd02XEGGfmgkH-69" value="store_name varchar(50) NOT NULL&lt;br&gt;store_address varchar(50) NOT NULL&lt;br&gt;store_name varchar(50) NOT NULL&lt;br&gt;product_quantity int NOT NULL&lt;br&gt;empty_slots int&amp;nbsp;" style="shape=partialRectangle;connectable=0;fillColor=none;top=0;left=0;bottom=0;right=0;align=left;spacingLeft=6;overflow=hidden;whiteSpace=wrap;html=1;labelBackgroundColor=none;strokeColor=#D0CEE2;fontColor=#1A1A1A;" vertex="1" parent="b9A2-R6nd02XEGGfmgkH-67">
          <mxGeometry x="30" width="234.75" height="86" as="geometry">
            <mxRectangle width="234.75" height="86" as="alternateBounds" />
          </mxGeometry>
        </mxCell>
        <mxCell id="b9A2-R6nd02XEGGfmgkH-73" value="" style="shape=tableRow;horizontal=0;startSize=0;swimlaneHead=0;swimlaneBody=0;fillColor=none;collapsible=0;dropTarget=0;points=[[0,0.5],[1,0.5]];portConstraint=eastwest;top=0;left=0;right=0;bottom=0;labelBackgroundColor=none;strokeColor=#D0CEE2;fontColor=#1A1A1A;" vertex="1" parent="b9A2-R6nd02XEGGfmgkH-63">
          <mxGeometry y="146" width="264.75" height="94" as="geometry" />
        </mxCell>
        <mxCell id="b9A2-R6nd02XEGGfmgkH-74" value="FK" style="shape=partialRectangle;connectable=0;fillColor=none;top=0;left=0;bottom=0;right=0;editable=1;overflow=hidden;whiteSpace=wrap;html=1;labelBackgroundColor=none;strokeColor=#D0CEE2;fontColor=#1A1A1A;" vertex="1" parent="b9A2-R6nd02XEGGfmgkH-73">
          <mxGeometry width="30" height="94" as="geometry">
            <mxRectangle width="30" height="94" as="alternateBounds" />
          </mxGeometry>
        </mxCell>
        <mxCell id="b9A2-R6nd02XEGGfmgkH-75" value="vendor_id int NOT NULL" style="shape=partialRectangle;connectable=0;fillColor=none;top=0;left=0;bottom=0;right=0;align=left;spacingLeft=6;overflow=hidden;whiteSpace=wrap;html=1;labelBackgroundColor=none;strokeColor=#D0CEE2;fontColor=#1A1A1A;" vertex="1" parent="b9A2-R6nd02XEGGfmgkH-73">
          <mxGeometry x="30" width="234.75" height="94" as="geometry">
            <mxRectangle width="234.75" height="94" as="alternateBounds" />
          </mxGeometry>
        </mxCell>
        <mxCell id="b9A2-R6nd02XEGGfmgkH-76" value="" style="edgeStyle=entityRelationEdgeStyle;fontSize=12;html=1;endArrow=ERzeroToMany;startArrow=ERmandOne;rounded=0;exitX=0.993;exitY=0.694;exitDx=0;exitDy=0;exitPerimeter=0;entryX=0.004;entryY=0.967;entryDx=0;entryDy=0;entryPerimeter=0;labelBackgroundColor=none;strokeColor=#736CA8;fontColor=default;" edge="1" parent="1" source="C-vyLk0tnHw3VtMMgP7b-17" target="b9A2-R6nd02XEGGfmgkH-67">
          <mxGeometry width="100" height="100" relative="1" as="geometry">
            <mxPoint x="421" y="622" as="sourcePoint" />
            <mxPoint x="534" y="1306" as="targetPoint" />
          </mxGeometry>
        </mxCell>
        <mxCell id="b9A2-R6nd02XEGGfmgkH-80" value="" style="edgeStyle=entityRelationEdgeStyle;fontSize=12;html=1;endArrow=ERmany;startArrow=ERmany;rounded=0;exitX=1;exitY=0.5;exitDx=0;exitDy=0;entryX=-0.006;entryY=0.2;entryDx=0;entryDy=0;entryPerimeter=0;labelBackgroundColor=none;strokeColor=#736CA8;fontColor=default;" edge="1" parent="1" source="b9A2-R6nd02XEGGfmgkH-33" target="b9A2-R6nd02XEGGfmgkH-46">
          <mxGeometry width="100" height="100" relative="1" as="geometry">
            <mxPoint x="296" y="1238" as="sourcePoint" />
            <mxPoint x="348" y="1044" as="targetPoint" />
          </mxGeometry>
        </mxCell>
        <mxCell id="b9A2-R6nd02XEGGfmgkH-82" value="" style="edgeStyle=entityRelationEdgeStyle;fontSize=12;html=1;endArrow=ERoneToMany;rounded=0;strokeColor=#736CA8;fontColor=#1A1A1A;entryX=1.011;entryY=0.8;entryDx=0;entryDy=0;entryPerimeter=0;" edge="1" parent="1" source="b9A2-R6nd02XEGGfmgkH-26" target="b9A2-R6nd02XEGGfmgkH-46">
          <mxGeometry width="100" height="100" relative="1" as="geometry">
            <mxPoint x="692" y="1091" as="sourcePoint" />
            <mxPoint x="592" y="1191" as="targetPoint" />
          </mxGeometry>
        </mxCell>
        <mxCell id="b9A2-R6nd02XEGGfmgkH-83" value="" style="edgeStyle=entityRelationEdgeStyle;fontSize=12;html=1;endArrow=ERmany;startArrow=ERmany;rounded=0;strokeColor=#736CA8;fontColor=#1A1A1A;entryX=-0.015;entryY=0.659;entryDx=0;entryDy=0;entryPerimeter=0;exitX=1.011;exitY=0.335;exitDx=0;exitDy=0;exitPerimeter=0;" edge="1" parent="1" source="C-vyLk0tnHw3VtMMgP7b-17" target="C-vyLk0tnHw3VtMMgP7b-9">
          <mxGeometry width="100" height="100" relative="1" as="geometry">
            <mxPoint x="409" y="391" as="sourcePoint" />
            <mxPoint x="509" y="291" as="targetPoint" />
          </mxGeometry>
        </mxCell>
        <mxCell id="b9A2-R6nd02XEGGfmgkH-84" value="" style="edgeStyle=entityRelationEdgeStyle;fontSize=12;html=1;endArrow=ERmany;startArrow=ERmany;rounded=0;strokeColor=#736CA8;fontColor=#1A1A1A;" edge="1" parent="1" source="C-vyLk0tnHw3VtMMgP7b-27" target="C-vyLk0tnHw3VtMMgP7b-14">
          <mxGeometry width="100" height="100" relative="1" as="geometry">
            <mxPoint x="295" y="206" as="sourcePoint" />
            <mxPoint x="395" y="106" as="targetPoint" />
          </mxGeometry>
        </mxCell>
        <mxCell id="b9A2-R6nd02XEGGfmgkH-85" value="Cancelled_Order" style="shape=table;startSize=30;container=1;collapsible=1;childLayout=tableLayout;fixedRows=1;rowLines=0;fontStyle=1;align=center;resizeLast=1;html=1;strokeColor=#D0CEE2;fontColor=#1A1A1A;fillColor=#5D7F99;" vertex="1" parent="1">
          <mxGeometry x="373" y="922" width="239.75" height="120" as="geometry" />
        </mxCell>
        <mxCell id="b9A2-R6nd02XEGGfmgkH-86" value="" style="shape=tableRow;horizontal=0;startSize=0;swimlaneHead=0;swimlaneBody=0;fillColor=none;collapsible=0;dropTarget=0;points=[[0,0.5],[1,0.5]];portConstraint=eastwest;top=0;left=0;right=0;bottom=1;strokeColor=#D0CEE2;fontColor=#1A1A1A;" vertex="1" parent="b9A2-R6nd02XEGGfmgkH-85">
          <mxGeometry y="30" width="239.75" height="30" as="geometry" />
        </mxCell>
        <mxCell id="b9A2-R6nd02XEGGfmgkH-87" value="PK" style="shape=partialRectangle;connectable=0;fillColor=none;top=0;left=0;bottom=0;right=0;fontStyle=1;overflow=hidden;whiteSpace=wrap;html=1;strokeColor=#D0CEE2;fontColor=#1A1A1A;" vertex="1" parent="b9A2-R6nd02XEGGfmgkH-86">
          <mxGeometry width="30" height="30" as="geometry">
            <mxRectangle width="30" height="30" as="alternateBounds" />
          </mxGeometry>
        </mxCell>
        <mxCell id="b9A2-R6nd02XEGGfmgkH-88" value="cancelled_order_id int NOT NULL" style="shape=partialRectangle;connectable=0;fillColor=none;top=0;left=0;bottom=0;right=0;align=left;spacingLeft=6;fontStyle=5;overflow=hidden;whiteSpace=wrap;html=1;strokeColor=#D0CEE2;fontColor=#1A1A1A;" vertex="1" parent="b9A2-R6nd02XEGGfmgkH-86">
          <mxGeometry x="30" width="209.75" height="30" as="geometry">
            <mxRectangle width="209.75" height="30" as="alternateBounds" />
          </mxGeometry>
        </mxCell>
        <mxCell id="b9A2-R6nd02XEGGfmgkH-89" value="" style="shape=tableRow;horizontal=0;startSize=0;swimlaneHead=0;swimlaneBody=0;fillColor=none;collapsible=0;dropTarget=0;points=[[0,0.5],[1,0.5]];portConstraint=eastwest;top=0;left=0;right=0;bottom=0;strokeColor=#D0CEE2;fontColor=#1A1A1A;" vertex="1" parent="b9A2-R6nd02XEGGfmgkH-85">
          <mxGeometry y="60" width="239.75" height="30" as="geometry" />
        </mxCell>
        <mxCell id="b9A2-R6nd02XEGGfmgkH-90" value="" style="shape=partialRectangle;connectable=0;fillColor=none;top=0;left=0;bottom=0;right=0;editable=1;overflow=hidden;whiteSpace=wrap;html=1;strokeColor=#D0CEE2;fontColor=#1A1A1A;" vertex="1" parent="b9A2-R6nd02XEGGfmgkH-89">
          <mxGeometry width="30" height="30" as="geometry">
            <mxRectangle width="30" height="30" as="alternateBounds" />
          </mxGeometry>
        </mxCell>
        <mxCell id="b9A2-R6nd02XEGGfmgkH-91" value="reason varchar(100) NOT NULL" style="shape=partialRectangle;connectable=0;fillColor=none;top=0;left=0;bottom=0;right=0;align=left;spacingLeft=6;overflow=hidden;whiteSpace=wrap;html=1;strokeColor=#D0CEE2;fontColor=#1A1A1A;" vertex="1" parent="b9A2-R6nd02XEGGfmgkH-89">
          <mxGeometry x="30" width="209.75" height="30" as="geometry">
            <mxRectangle width="209.75" height="30" as="alternateBounds" />
          </mxGeometry>
        </mxCell>
        <mxCell id="b9A2-R6nd02XEGGfmgkH-95" value="" style="shape=tableRow;horizontal=0;startSize=0;swimlaneHead=0;swimlaneBody=0;fillColor=none;collapsible=0;dropTarget=0;points=[[0,0.5],[1,0.5]];portConstraint=eastwest;top=0;left=0;right=0;bottom=0;strokeColor=#D0CEE2;fontColor=#1A1A1A;" vertex="1" parent="b9A2-R6nd02XEGGfmgkH-85">
          <mxGeometry y="90" width="239.75" height="30" as="geometry" />
        </mxCell>
        <mxCell id="b9A2-R6nd02XEGGfmgkH-96" value="FK" style="shape=partialRectangle;connectable=0;fillColor=none;top=0;left=0;bottom=0;right=0;editable=1;overflow=hidden;whiteSpace=wrap;html=1;strokeColor=#D0CEE2;fontColor=#1A1A1A;" vertex="1" parent="b9A2-R6nd02XEGGfmgkH-95">
          <mxGeometry width="30" height="30" as="geometry">
            <mxRectangle width="30" height="30" as="alternateBounds" />
          </mxGeometry>
        </mxCell>
        <mxCell id="b9A2-R6nd02XEGGfmgkH-97" value="order_id int NOT NULL" style="shape=partialRectangle;connectable=0;fillColor=none;top=0;left=0;bottom=0;right=0;align=left;spacingLeft=6;overflow=hidden;whiteSpace=wrap;html=1;strokeColor=#D0CEE2;fontColor=#1A1A1A;" vertex="1" parent="b9A2-R6nd02XEGGfmgkH-95">
          <mxGeometry x="30" width="209.75" height="30" as="geometry">
            <mxRectangle width="209.75" height="30" as="alternateBounds" />
          </mxGeometry>
        </mxCell>
        <mxCell id="b9A2-R6nd02XEGGfmgkH-98" value="" style="edgeStyle=entityRelationEdgeStyle;fontSize=12;html=1;endArrow=ERmandOne;startArrow=ERmandOne;rounded=0;strokeColor=#736CA8;fontColor=#1A1A1A;exitX=1;exitY=0.5;exitDx=0;exitDy=0;entryX=0;entryY=0.811;entryDx=0;entryDy=0;entryPerimeter=0;" edge="1" parent="1" source="b9A2-R6nd02XEGGfmgkH-89" target="b9A2-R6nd02XEGGfmgkH-26">
          <mxGeometry width="100" height="100" relative="1" as="geometry">
            <mxPoint x="632" y="988" as="sourcePoint" />
            <mxPoint x="732" y="888" as="targetPoint" />
          </mxGeometry>
        </mxCell>
        <mxCell id="b9A2-R6nd02XEGGfmgkH-99" value="Shopping Cart" style="shape=table;startSize=23;container=1;collapsible=1;childLayout=tableLayout;fixedRows=1;rowLines=0;fontStyle=1;align=center;resizeLast=1;html=1;strokeColor=#D0CEE2;fontColor=#1A1A1A;fillColor=#5D7F99;" vertex="1" parent="1">
          <mxGeometry x="576" y="1100" width="258.75" height="207" as="geometry" />
        </mxCell>
        <mxCell id="b9A2-R6nd02XEGGfmgkH-100" value="" style="shape=tableRow;horizontal=0;startSize=0;swimlaneHead=0;swimlaneBody=0;fillColor=none;collapsible=0;dropTarget=0;points=[[0,0.5],[1,0.5]];portConstraint=eastwest;top=0;left=0;right=0;bottom=1;strokeColor=#D0CEE2;fontColor=#1A1A1A;" vertex="1" parent="b9A2-R6nd02XEGGfmgkH-99">
          <mxGeometry y="23" width="258.75" height="30" as="geometry" />
        </mxCell>
        <mxCell id="b9A2-R6nd02XEGGfmgkH-101" value="PK" style="shape=partialRectangle;connectable=0;fillColor=none;top=0;left=0;bottom=0;right=0;fontStyle=1;overflow=hidden;whiteSpace=wrap;html=1;strokeColor=#D0CEE2;fontColor=#1A1A1A;" vertex="1" parent="b9A2-R6nd02XEGGfmgkH-100">
          <mxGeometry width="30" height="30" as="geometry">
            <mxRectangle width="30" height="30" as="alternateBounds" />
          </mxGeometry>
        </mxCell>
        <mxCell id="b9A2-R6nd02XEGGfmgkH-102" value="cart_id int NOT NULL" style="shape=partialRectangle;connectable=0;fillColor=none;top=0;left=0;bottom=0;right=0;align=left;spacingLeft=6;fontStyle=5;overflow=hidden;whiteSpace=wrap;html=1;strokeColor=#D0CEE2;fontColor=#1A1A1A;" vertex="1" parent="b9A2-R6nd02XEGGfmgkH-100">
          <mxGeometry x="30" width="228.75" height="30" as="geometry">
            <mxRectangle width="228.75" height="30" as="alternateBounds" />
          </mxGeometry>
        </mxCell>
        <mxCell id="b9A2-R6nd02XEGGfmgkH-103" value="" style="shape=tableRow;horizontal=0;startSize=0;swimlaneHead=0;swimlaneBody=0;fillColor=none;collapsible=0;dropTarget=0;points=[[0,0.5],[1,0.5]];portConstraint=eastwest;top=0;left=0;right=0;bottom=0;strokeColor=#D0CEE2;fontColor=#1A1A1A;" vertex="1" parent="b9A2-R6nd02XEGGfmgkH-99">
          <mxGeometry y="53" width="258.75" height="84" as="geometry" />
        </mxCell>
        <mxCell id="b9A2-R6nd02XEGGfmgkH-104" value="" style="shape=partialRectangle;connectable=0;fillColor=none;top=0;left=0;bottom=0;right=0;editable=1;overflow=hidden;whiteSpace=wrap;html=1;strokeColor=#D0CEE2;fontColor=#1A1A1A;" vertex="1" parent="b9A2-R6nd02XEGGfmgkH-103">
          <mxGeometry width="30" height="84" as="geometry">
            <mxRectangle width="30" height="84" as="alternateBounds" />
          </mxGeometry>
        </mxCell>
        <mxCell id="b9A2-R6nd02XEGGfmgkH-105" value="product_name varchar(50) NOT NULL&lt;br&gt;product_quantity int NOT NULL&lt;br&gt;product_price int NOT NULL&lt;br&gt;total_price int NOT NULL" style="shape=partialRectangle;connectable=0;fillColor=none;top=0;left=0;bottom=0;right=0;align=left;spacingLeft=6;overflow=hidden;whiteSpace=wrap;html=1;strokeColor=#D0CEE2;fontColor=#1A1A1A;" vertex="1" parent="b9A2-R6nd02XEGGfmgkH-103">
          <mxGeometry x="30" width="228.75" height="84" as="geometry">
            <mxRectangle width="228.75" height="84" as="alternateBounds" />
          </mxGeometry>
        </mxCell>
        <mxCell id="b9A2-R6nd02XEGGfmgkH-109" value="" style="shape=tableRow;horizontal=0;startSize=0;swimlaneHead=0;swimlaneBody=0;fillColor=none;collapsible=0;dropTarget=0;points=[[0,0.5],[1,0.5]];portConstraint=eastwest;top=0;left=0;right=0;bottom=0;strokeColor=#D0CEE2;fontColor=#1A1A1A;" vertex="1" parent="b9A2-R6nd02XEGGfmgkH-99">
          <mxGeometry y="137" width="258.75" height="70" as="geometry" />
        </mxCell>
        <mxCell id="b9A2-R6nd02XEGGfmgkH-110" value="FK" style="shape=partialRectangle;connectable=0;fillColor=none;top=0;left=0;bottom=0;right=0;editable=1;overflow=hidden;whiteSpace=wrap;html=1;strokeColor=#D0CEE2;fontColor=#1A1A1A;" vertex="1" parent="b9A2-R6nd02XEGGfmgkH-109">
          <mxGeometry width="30" height="70" as="geometry">
            <mxRectangle width="30" height="70" as="alternateBounds" />
          </mxGeometry>
        </mxCell>
        <mxCell id="b9A2-R6nd02XEGGfmgkH-111" value="product_id int NOT NULL" style="shape=partialRectangle;connectable=0;fillColor=none;top=0;left=0;bottom=0;right=0;align=left;spacingLeft=6;overflow=hidden;whiteSpace=wrap;html=1;strokeColor=#D0CEE2;fontColor=#1A1A1A;" vertex="1" parent="b9A2-R6nd02XEGGfmgkH-109">
          <mxGeometry x="30" width="228.75" height="70" as="geometry">
            <mxRectangle width="228.75" height="70" as="alternateBounds" />
          </mxGeometry>
        </mxCell>
        <mxCell id="b9A2-R6nd02XEGGfmgkH-113" value="" style="edgeStyle=entityRelationEdgeStyle;fontSize=12;html=1;endArrow=ERmany;startArrow=ERmany;rounded=0;strokeColor=#736CA8;fontColor=#1A1A1A;entryX=-0.004;entryY=0.845;entryDx=0;entryDy=0;entryPerimeter=0;exitX=1.004;exitY=0.796;exitDx=0;exitDy=0;exitPerimeter=0;" edge="1" parent="1" source="b9A2-R6nd02XEGGfmgkH-33" target="b9A2-R6nd02XEGGfmgkH-103">
          <mxGeometry width="100" height="100" relative="1" as="geometry">
            <mxPoint x="292" y="1075" as="sourcePoint" />
            <mxPoint x="537" y="1225" as="targetPoint" />
          </mxGeometry>
        </mxCell>
        <mxCell id="b9A2-R6nd02XEGGfmgkH-114" value="Payment" style="shape=table;startSize=30;container=1;collapsible=1;childLayout=tableLayout;fixedRows=1;rowLines=0;fontStyle=1;align=center;resizeLast=1;html=1;strokeColor=#D0CEE2;fontColor=#1A1A1A;fillColor=#5D7F99;" vertex="1" parent="1">
          <mxGeometry x="8" y="1187" width="247.75" height="271" as="geometry" />
        </mxCell>
        <mxCell id="b9A2-R6nd02XEGGfmgkH-115" value="" style="shape=tableRow;horizontal=0;startSize=0;swimlaneHead=0;swimlaneBody=0;fillColor=none;collapsible=0;dropTarget=0;points=[[0,0.5],[1,0.5]];portConstraint=eastwest;top=0;left=0;right=0;bottom=1;strokeColor=#D0CEE2;fontColor=#1A1A1A;" vertex="1" parent="b9A2-R6nd02XEGGfmgkH-114">
          <mxGeometry y="30" width="247.75" height="30" as="geometry" />
        </mxCell>
        <mxCell id="b9A2-R6nd02XEGGfmgkH-116" value="PK" style="shape=partialRectangle;connectable=0;fillColor=none;top=0;left=0;bottom=0;right=0;fontStyle=1;overflow=hidden;whiteSpace=wrap;html=1;strokeColor=#D0CEE2;fontColor=#1A1A1A;" vertex="1" parent="b9A2-R6nd02XEGGfmgkH-115">
          <mxGeometry width="30" height="30" as="geometry">
            <mxRectangle width="30" height="30" as="alternateBounds" />
          </mxGeometry>
        </mxCell>
        <mxCell id="b9A2-R6nd02XEGGfmgkH-117" value="payment_id int NOT NULL" style="shape=partialRectangle;connectable=0;fillColor=none;top=0;left=0;bottom=0;right=0;align=left;spacingLeft=6;fontStyle=5;overflow=hidden;whiteSpace=wrap;html=1;strokeColor=#D0CEE2;fontColor=#1A1A1A;" vertex="1" parent="b9A2-R6nd02XEGGfmgkH-115">
          <mxGeometry x="30" width="217.75" height="30" as="geometry">
            <mxRectangle width="217.75" height="30" as="alternateBounds" />
          </mxGeometry>
        </mxCell>
        <mxCell id="b9A2-R6nd02XEGGfmgkH-118" value="" style="shape=tableRow;horizontal=0;startSize=0;swimlaneHead=0;swimlaneBody=0;fillColor=none;collapsible=0;dropTarget=0;points=[[0,0.5],[1,0.5]];portConstraint=eastwest;top=0;left=0;right=0;bottom=0;strokeColor=#D0CEE2;fontColor=#1A1A1A;" vertex="1" parent="b9A2-R6nd02XEGGfmgkH-114">
          <mxGeometry y="60" width="247.75" height="89" as="geometry" />
        </mxCell>
        <mxCell id="b9A2-R6nd02XEGGfmgkH-119" value="" style="shape=partialRectangle;connectable=0;fillColor=none;top=0;left=0;bottom=0;right=0;editable=1;overflow=hidden;whiteSpace=wrap;html=1;strokeColor=#D0CEE2;fontColor=#1A1A1A;" vertex="1" parent="b9A2-R6nd02XEGGfmgkH-118">
          <mxGeometry width="30" height="89" as="geometry">
            <mxRectangle width="30" height="89" as="alternateBounds" />
          </mxGeometry>
        </mxCell>
        <mxCell id="b9A2-R6nd02XEGGfmgkH-120" value="card_number int NOT NULL&lt;br&gt;expiration_date date NOT NULL&lt;br&gt;security_code int NOT NULL&lt;br&gt;payment_amount INT NOT NULL&lt;br&gt;payment_date datetime NOT NULL&lt;br&gt;" style="shape=partialRectangle;connectable=0;fillColor=none;top=0;left=0;bottom=0;right=0;align=left;spacingLeft=6;overflow=hidden;whiteSpace=wrap;html=1;strokeColor=#D0CEE2;fontColor=#1A1A1A;" vertex="1" parent="b9A2-R6nd02XEGGfmgkH-118">
          <mxGeometry x="30" width="217.75" height="89" as="geometry">
            <mxRectangle width="217.75" height="89" as="alternateBounds" />
          </mxGeometry>
        </mxCell>
        <mxCell id="b9A2-R6nd02XEGGfmgkH-124" value="" style="shape=tableRow;horizontal=0;startSize=0;swimlaneHead=0;swimlaneBody=0;fillColor=none;collapsible=0;dropTarget=0;points=[[0,0.5],[1,0.5]];portConstraint=eastwest;top=0;left=0;right=0;bottom=0;strokeColor=#D0CEE2;fontColor=#1A1A1A;" vertex="1" parent="b9A2-R6nd02XEGGfmgkH-114">
          <mxGeometry y="149" width="247.75" height="122" as="geometry" />
        </mxCell>
        <mxCell id="b9A2-R6nd02XEGGfmgkH-125" value="FK&amp;nbsp;&lt;br&gt;&lt;br&gt;FK" style="shape=partialRectangle;connectable=0;fillColor=none;top=0;left=0;bottom=0;right=0;editable=1;overflow=hidden;whiteSpace=wrap;html=1;strokeColor=#D0CEE2;fontColor=#1A1A1A;" vertex="1" parent="b9A2-R6nd02XEGGfmgkH-124">
          <mxGeometry width="30" height="122" as="geometry">
            <mxRectangle width="30" height="122" as="alternateBounds" />
          </mxGeometry>
        </mxCell>
        <mxCell id="b9A2-R6nd02XEGGfmgkH-126" value="method_id int NOT NULL&lt;br&gt;&lt;br&gt;customer_id int NOT NULL" style="shape=partialRectangle;connectable=0;fillColor=none;top=0;left=0;bottom=0;right=0;align=left;spacingLeft=6;overflow=hidden;whiteSpace=wrap;html=1;strokeColor=#D0CEE2;fontColor=#1A1A1A;" vertex="1" parent="b9A2-R6nd02XEGGfmgkH-124">
          <mxGeometry x="30" width="217.75" height="122" as="geometry">
            <mxRectangle width="217.75" height="122" as="alternateBounds" />
          </mxGeometry>
        </mxCell>
        <mxCell id="b9A2-R6nd02XEGGfmgkH-127" value="Payment_method" style="shape=table;startSize=30;container=1;collapsible=1;childLayout=tableLayout;fixedRows=1;rowLines=0;fontStyle=1;align=center;resizeLast=1;html=1;strokeColor=#D0CEE2;fontColor=#1A1A1A;fillColor=#5D7F99;" vertex="1" parent="1">
          <mxGeometry x="580" y="1380" width="226.75" height="90" as="geometry" />
        </mxCell>
        <mxCell id="b9A2-R6nd02XEGGfmgkH-128" value="" style="shape=tableRow;horizontal=0;startSize=0;swimlaneHead=0;swimlaneBody=0;fillColor=none;collapsible=0;dropTarget=0;points=[[0,0.5],[1,0.5]];portConstraint=eastwest;top=0;left=0;right=0;bottom=1;strokeColor=#D0CEE2;fontColor=#1A1A1A;" vertex="1" parent="b9A2-R6nd02XEGGfmgkH-127">
          <mxGeometry y="30" width="226.75" height="30" as="geometry" />
        </mxCell>
        <mxCell id="b9A2-R6nd02XEGGfmgkH-129" value="PK" style="shape=partialRectangle;connectable=0;fillColor=none;top=0;left=0;bottom=0;right=0;fontStyle=1;overflow=hidden;whiteSpace=wrap;html=1;strokeColor=#D0CEE2;fontColor=#1A1A1A;" vertex="1" parent="b9A2-R6nd02XEGGfmgkH-128">
          <mxGeometry width="30" height="30" as="geometry">
            <mxRectangle width="30" height="30" as="alternateBounds" />
          </mxGeometry>
        </mxCell>
        <mxCell id="b9A2-R6nd02XEGGfmgkH-130" value="method_id int NOT NULL" style="shape=partialRectangle;connectable=0;fillColor=none;top=0;left=0;bottom=0;right=0;align=left;spacingLeft=6;fontStyle=5;overflow=hidden;whiteSpace=wrap;html=1;strokeColor=#D0CEE2;fontColor=#1A1A1A;" vertex="1" parent="b9A2-R6nd02XEGGfmgkH-128">
          <mxGeometry x="30" width="196.75" height="30" as="geometry">
            <mxRectangle width="196.75" height="30" as="alternateBounds" />
          </mxGeometry>
        </mxCell>
        <mxCell id="b9A2-R6nd02XEGGfmgkH-131" value="" style="shape=tableRow;horizontal=0;startSize=0;swimlaneHead=0;swimlaneBody=0;fillColor=none;collapsible=0;dropTarget=0;points=[[0,0.5],[1,0.5]];portConstraint=eastwest;top=0;left=0;right=0;bottom=0;strokeColor=#D0CEE2;fontColor=#1A1A1A;" vertex="1" parent="b9A2-R6nd02XEGGfmgkH-127">
          <mxGeometry y="60" width="226.75" height="30" as="geometry" />
        </mxCell>
        <mxCell id="b9A2-R6nd02XEGGfmgkH-132" value="" style="shape=partialRectangle;connectable=0;fillColor=none;top=0;left=0;bottom=0;right=0;editable=1;overflow=hidden;whiteSpace=wrap;html=1;strokeColor=#D0CEE2;fontColor=#1A1A1A;" vertex="1" parent="b9A2-R6nd02XEGGfmgkH-131">
          <mxGeometry width="30" height="30" as="geometry">
            <mxRectangle width="30" height="30" as="alternateBounds" />
          </mxGeometry>
        </mxCell>
        <mxCell id="b9A2-R6nd02XEGGfmgkH-133" value="method_name varchar(10)" style="shape=partialRectangle;connectable=0;fillColor=none;top=0;left=0;bottom=0;right=0;align=left;spacingLeft=6;overflow=hidden;whiteSpace=wrap;html=1;strokeColor=#D0CEE2;fontColor=#1A1A1A;" vertex="1" parent="b9A2-R6nd02XEGGfmgkH-131">
          <mxGeometry x="30" width="196.75" height="30" as="geometry">
            <mxRectangle width="196.75" height="30" as="alternateBounds" />
          </mxGeometry>
        </mxCell>
        <mxCell id="b9A2-R6nd02XEGGfmgkH-140" value="" style="edgeStyle=entityRelationEdgeStyle;fontSize=12;html=1;endArrow=ERmandOne;startArrow=ERmandOne;rounded=0;strokeColor=#736CA8;fontColor=#1A1A1A;exitX=1.009;exitY=0.831;exitDx=0;exitDy=0;exitPerimeter=0;entryX=-0.013;entryY=-0.133;entryDx=0;entryDy=0;entryPerimeter=0;" edge="1" parent="1" source="b9A2-R6nd02XEGGfmgkH-118" target="b9A2-R6nd02XEGGfmgkH-131">
          <mxGeometry width="100" height="100" relative="1" as="geometry">
            <mxPoint x="303" y="1369" as="sourcePoint" />
            <mxPoint x="403" y="1269" as="targetPoint" />
          </mxGeometry>
        </mxCell>
        <mxCell id="b9A2-R6nd02XEGGfmgkH-141" value="" style="edgeStyle=entityRelationEdgeStyle;fontSize=12;html=1;endArrow=ERoneToMany;rounded=0;strokeColor=#736CA8;fontColor=#1A1A1A;exitX=0;exitY=0.432;exitDx=0;exitDy=0;exitPerimeter=0;entryX=-0.004;entryY=0.258;entryDx=0;entryDy=0;entryPerimeter=0;" edge="1" parent="1" source="C-vyLk0tnHw3VtMMgP7b-27" target="b9A2-R6nd02XEGGfmgkH-118">
          <mxGeometry width="100" height="100" relative="1" as="geometry">
            <mxPoint x="-111" y="260" as="sourcePoint" />
            <mxPoint x="-58" y="764" as="targetPoint" />
          </mxGeometry>
        </mxCell>
        <mxCell id="b9A2-R6nd02XEGGfmgkH-142" value="" style="edgeStyle=entityRelationEdgeStyle;fontSize=12;html=1;endArrow=ERmandOne;startArrow=ERmandOne;rounded=0;strokeColor=#736CA8;fontColor=#1A1A1A;exitX=1.01;exitY=0.365;exitDx=0;exitDy=0;exitPerimeter=0;entryX=-0.012;entryY=0.791;entryDx=0;entryDy=0;entryPerimeter=0;" edge="1" parent="1" source="b9A2-R6nd02XEGGfmgkH-5" target="C-vyLk0tnHw3VtMMgP7b-9">
          <mxGeometry width="100" height="100" relative="1" as="geometry">
            <mxPoint x="315" y="687" as="sourcePoint" />
            <mxPoint x="415" y="587" as="targetPoint" />
          </mxGeometry>
        </mxCell>
        <mxCell id="b9A2-R6nd02XEGGfmgkH-143" value="" style="edgeStyle=entityRelationEdgeStyle;fontSize=12;html=1;endArrow=ERmany;startArrow=ERmany;rounded=0;strokeColor=#736CA8;fontColor=#1A1A1A;entryX=0.004;entryY=0.852;entryDx=0;entryDy=0;entryPerimeter=0;exitX=-0.011;exitY=0.419;exitDx=0;exitDy=0;exitPerimeter=0;" edge="1" parent="1" source="b9A2-R6nd02XEGGfmgkH-67" target="C-vyLk0tnHw3VtMMgP7b-9">
          <mxGeometry width="100" height="100" relative="1" as="geometry">
            <mxPoint x="452" y="331" as="sourcePoint" />
            <mxPoint x="552" y="231" as="targetPoint" />
          </mxGeometry>
        </mxCell>
      </root>
    </mxGraphModel>
  </diagram>
</mxfile>
